# xmcd
#
# Track frame offsets:
#	150
#	13972
#	32572
#	47487
#	66346
#	85999
#	105714
#	128437
#	148609
#	174400
#	186008
#	205437
#	224118
#
# Disc length: 3254 seconds
# Revision: 0
# Processed by: cddbd v1.5.2PL0 Copyright (c) Steve Scherf et al.
# Submitted via: dBpowerAMP V12.0
#
DISCID=be0cb40d
DTITLE=Martyr - Warp Zone
DYEAR=2000
DGENRE=Metal
TTITLE0=Warp Zone
TTITLE1=Virtual Emotions
TTITLE2=Endless Vortex Towards Erasing Destiny
TTITLE3=Deserted Waters
TTITLE4=Carpe Diem
TTITLE5=The Fortune-Teller
TTITLE6=Speechless
TTITLE7=Retry? Abort? Ignore?
TTITLE8=Realms of Reverie
TTITLE9=Warp Zone (Demo)
TTITLE10=Virtual Emotions (Demo)
TTITLE11=Deserted Waters (Demo)
TTITLE12=Carpe Diem (Demo)
EXTD=
EXTT0=
EXTT1=
EXTT2=
EXTT3=
EXTT4=
EXTT5=
EXTT6=
EXTT7=
EXTT8=
EXTT9=
EXTT10=
EXTT11=
EXTT12=
PLAYORDER=
